<?xml version="1.0" encoding="UTF-8" standalone="no"?>
<!DOCTYPE svg PUBLIC "-//W3C//DTD SVG 1.1//EN" "http://www.w3.org/Graphics/SVG/1.1/DTD/svg11.dtd">
<svg xmlns="http://www.w3.org/2000/svg" version="1.1" viewBox="0 0 200 200">
<g stroke-width="2.00" fill="none" stroke-linecap="butt">
<path stroke="#8181c4" vector-effect="non-scaling-stroke" d="
  M 16.79 20.25
  L 16.79 22.47
  Q 16.79 23.01 17.34 23.01
  Q 35.42 22.96 53.50 23.03
  Q 62.69 23.07 65.25 23.77
  C 94.83 31.90 90.13 84.37 57.55 83.92
  Q 47.24 83.78 36.80 83.76
  Q 36.25 83.76 36.25 83.20
  L 36.25 43.25
  A 0.50 0.50 0.0 0 0 35.75 42.75
  L 17.48 42.75
  Q 16.94 42.75 16.80 43.27
  Q 16.57 44.13 16.79 45.00"
/>
<path stroke="#8080ce" vector-effect="non-scaling-stroke" d="
  M 16.79 45.00
  L 16.77 105.21
  Q 16.77 105.73 17.29 105.73
  Q 39.30 105.81 61.30 105.72
  C 74.76 105.66 86.70 97.95 93.99 87.00
  Q 94.34 86.47 94.77 86.94
  L 96.00 88.29"
/>
<path stroke="#8181c4" vector-effect="non-scaling-stroke" d="
  M 96.00 88.29
  Q 104.35 100.41 118.46 104.50"
/>
<path stroke="#8080ce" vector-effect="non-scaling-stroke" d="
  M 118.46 104.50
  Q 122.28 105.70 127.01 105.72
  Q 149.44 105.82 171.99 105.72
  Q 172.50 105.71 172.50 105.21
  L 172.50 84.45
  Q 172.50 83.80 171.85 83.80
  L 168.25 83.79"
/>
<path stroke="#8181c4" vector-effect="non-scaling-stroke" d="
  M 168.25 83.79
  Q 153.68 83.57 143.00 83.92
  C 134.71 84.20 121.51 85.08 115.24 79.00
  Q 98.00 62.30 106.67 40.24
  C 111.06 29.08 120.89 23.22 132.68 23.11
  Q 148.38 22.96 164.00 22.96"
/>
<path stroke="#8080ce" vector-effect="non-scaling-stroke" d="
  M 164.00 22.96
  L 172.01 22.98
  Q 172.50 22.98 172.50 22.49
  L 172.50 2.27
  Q 172.50 1.76 172.00 1.76
  Q 150.84 1.72 129.68 1.76
  C 112.78 1.79 104.92 7.76 94.54 20.18
  Q 94.16 20.63 93.84 20.14
  C 86.67 9.17 74.85 1.25 61.45 1.62
  C 46.81 2.02 32.07 1.74 17.36 1.77
  Q 16.80 1.77 16.80 2.32
  L 16.79 20.25"
/>
<path stroke="#020193" vector-effect="non-scaling-stroke" d="
  M 164.00 22.96
  C 165.87 18.89 151.47 20.43 149.02 20.74
  C 135.76 22.43 121.74 18.57 111.48 30.17
  Q 108.55 33.48 105.97 38.22
  C 100.53 48.19 101.61 61.41 106.85 71.17
  C 111.93 80.61 120.42 85.39 131.01 85.15
  Q 147.94 84.76 164.92 85.54
  Q 165.42 85.56 165.84 85.30
  L 168.25 83.79"
/>
<path stroke="#020193" vector-effect="non-scaling-stroke" d="
  M 118.46 104.50
  L 117.99 103.31
  Q 117.78 102.80 117.26 102.61
  Q 105.66 98.27 98.49 88.14
  Q 98.17 87.69 97.64 87.84
  L 96.00 88.29"
/>
<path stroke="#020193" vector-effect="non-scaling-stroke" d="
  M 16.79 45.00
  Q 25.32 43.49 33.90 44.72
  Q 34.37 44.79 34.50 45.24
  C 35.65 48.95 34.50 54.19 34.53 57.50
  Q 34.63 70.54 34.70 83.65
  A 1.53 1.53 0.0 0 0 36.21 85.17
  Q 45.26 85.28 54.51 85.57
  C 68.13 86.00 77.81 82.61 83.36 69.08
  C 89.19 54.87 88.07 31.58 71.58 24.31
  Q 67.54 22.53 63.19 21.70
  C 59.32 20.97 51.41 20.71 47.73 22.54
  Q 47.29 22.75 46.81 22.75
  C 44.24 22.75 34.61 23.45 33.11 21.80
  Q 32.76 21.42 32.24 21.44
  C 27.70 21.67 24.86 20.29 21.45 20.44
  Q 20.96 20.46 20.52 20.27
  Q 18.69 19.48 16.79 20.25"
/>
<path stroke="#cfecff" vector-effect="non-scaling-stroke" d="
  M 128.91 42.77
  C 116.60 42.80 115.70 64.66 130.27 64.73
  Q 151.07 64.82 171.99 64.72
  Q 172.50 64.71 172.50 64.21
  L 172.50 43.27
  Q 172.50 42.77 172.00 42.77
  Q 150.45 42.71 128.91 42.77"
/>
<path stroke="#8181c4" vector-effect="non-scaling-stroke" d="
  M 125.4254 132.7114
  A 9.68 9.68 0.0 0 0 115.6112 123.1675
  L 110.8117 123.2345
  A 9.68 9.68 0.0 0 0 101.2678 133.0488
  L 101.2946 134.9686
  A 9.68 9.68 0.0 0 0 111.1088 144.5125
  L 115.9083 144.4455
  A 9.68 9.68 0.0 0 0 125.4522 134.6312
  L 125.4254 132.7114"
/>
<path stroke="#8181c4" vector-effect="non-scaling-stroke" d="
  M 32.43 143.45
  C 42.01 143.27 40.96 124.31 33.01 124.26
  Q 25.16 124.21 17.25 124.27
  Q 16.75 124.27 16.75 124.77
  L 16.75 142.98
  Q 16.75 143.46 17.23 143.47
  Q 24.87 143.59 32.43 143.45"
/>
<path stroke="#8181c4" vector-effect="non-scaling-stroke" d="
  M 93.21 134.29
  A 0.26 0.26 0.0 0 1 93.71 134.36
  L 93.95 142.90
  Q 93.97 143.46 94.53 143.47
  L 99.59 143.51
  Q 100.25 143.51 100.25 142.85
  L 100.25 125.00
  Q 100.25 124.25 99.50 124.25
  L 91.72 124.25
  Q 91.17 124.25 90.95 124.76
  L 86.65 134.72
  A 0.38 0.37 -44.8 0 1 85.96 134.72
  L 81.81 124.65
  Q 81.67 124.32 81.31 124.32
  L 72.64 124.22
  Q 72.00 124.21 72.00 124.86
  L 72.00 138.70
  A 0.51 0.50 32.0 0 1 71.04 138.92
  L 64.06 124.65
  Q 63.91 124.33 63.56 124.33
  L 56.44 124.21
  Q 55.77 124.20 55.47 124.80
  L 47.64 140.54
  Q 47.21 141.41 47.21 140.44
  L 47.27 124.76
  Q 47.27 124.25 46.76 124.25
  L 41.01 124.25
  Q 40.51 124.25 40.50 124.75
  L 40.31 142.85
  Q 40.30 143.38 40.84 143.39
  L 53.82 143.55
  Q 54.25 143.55 54.38 143.15
  L 55.22 140.62
  Q 55.41 140.05 56.01 140.04
  L 63.24 139.92
  Q 63.73 139.92 63.93 140.37
  L 65.06 142.96
  Q 65.26 143.43 65.77 143.43
  L 78.09 143.53
  Q 78.72 143.54 78.75 142.91
  L 79.02 134.73
  A 0.17 0.17 0.0 0 1 79.35 134.67
  L 82.70 142.92
  Q 82.97 143.58 83.68 143.55
  L 89.40 143.33
  Q 90.16 143.30 90.40 142.58
  L 93.21 134.29"
/>
<path stroke="#8181c4" vector-effect="non-scaling-stroke" d="
  M 133.30 134.68
  A 0.32 0.32 0.0 0 1 133.89 134.52
  L 139.41 143.32
  A 0.32 0.32 0.0 0 0 139.68 143.47
  L 147.73 143.52
  A 0.32 0.32 0.0 0 0 148.05 143.20
  L 148.08 124.57
  A 0.32 0.32 0.0 0 0 147.76 124.25
  L 141.57 124.25
  A 0.32 0.32 0.0 0 0 141.25 124.57
  L 141.25 133.18
  A 0.32 0.32 0.0 0 1 140.66 133.36
  L 134.65 124.38
  A 0.32 0.32 0.0 0 0 134.38 124.24
  L 126.62 124.26
  A 0.32 0.32 0.0 0 0 126.30 124.58
  L 126.27 142.92
  A 0.32 0.32 0.0 0 0 126.57 143.24
  L 132.78 143.59
  A 0.32 0.32 0.0 0 0 133.12 143.28
  L 133.30 134.68"
/>
<path stroke="#8181c4" vector-effect="non-scaling-stroke" d="
  M 168.67 125.59
  C 166.34 123.33 155.46 124.18 150.27 124.36
  Q 149.76 124.38 149.77 124.88
  L 150.03 142.75
  Q 150.04 143.41 150.70 143.42
  C 155.45 143.56 167.74 145.01 170.51 140.57
  Q 175.65 132.34 168.67 125.59"
/>
<path stroke="#cfecff" vector-effect="non-scaling-stroke" d="
  M 74.71 166.00
  L 73.79 166.00"
/>
<path stroke="#8181c4" vector-effect="non-scaling-stroke" d="
  M 73.79 166.00
  C 73.37 164.99 65.66 165.22 63.72 165.26
  Q 63.20 165.28 62.72 165.09
  Q 61.22 164.50 62.84 163.83
  Q 63.20 163.68 63.58 163.65
  Q 67.89 163.34 72.62 163.56
  A 1.08 1.08 0.0 0 0 73.75 162.48
  L 73.75 159.13
  Q 73.75 158.50 73.12 158.50
  L 55.25 158.50
  Q 54.75 158.50 54.75 159.00
  L 54.75 178.00
  Q 54.75 178.50 55.25 178.50
  L 73.16 178.50
  Q 73.83 178.50 73.80 177.83
  L 73.60 173.29
  Q 73.58 172.75 73.04 172.75
  L 62.88 172.75
  Q 62.25 172.75 62.25 172.13
  L 62.25 170.58
  Q 62.25 169.92 62.90 169.91
  L 73.75 169.71"
/>
<path stroke="#cfecff" vector-effect="non-scaling-stroke" d="
  M 73.75 169.71
  L 74.46 169.75"
/>
<path stroke="#8181c4" vector-effect="non-scaling-stroke" d="
  M 74.46 169.75
  C 76.40 174.61 77.57 178.32 83.58 178.67
  C 91.06 179.12 97.33 178.57 98.84 170.44
  Q 98.92 170.00 98.48 170.00
  L 91.25 170.00
  Q 90.74 170.00 90.61 170.49
  C 89.13 176.00 81.58 173.61 82.32 167.78
  Q 82.92 163.06 86.99 162.47
  Q 87.63 162.38 88.10 162.82
  Q 91.89 166.39 97.20 165.03
  Q 97.60 164.93 97.87 164.61
  L 98.45 163.90
  Q 98.77 163.50 99.29 163.50
  L 104.25 163.50
  Q 104.75 163.50 104.75 164.00
  L 104.75 178.00
  Q 104.75 178.50 105.25 178.50
  L 110.75 178.50
  Q 111.25 178.50 111.25 178.00
  L 111.25 164.13
  Q 111.25 163.50 111.87 163.50
  L 117.33 163.50
  Q 118.10 163.50 118.11 164.27
  L 118.25 178.26
  Q 118.25 178.56 118.56 178.56
  L 124.01 178.47
  Q 124.49 178.47 124.50 177.98
  L 124.51 172.40
  Q 124.51 171.75 125.16 171.75
  L 130.12 171.75
  A 1.88 1.87 -0.0 0 1 132.00 173.62
  L 132.00 178.04
  Q 132.00 178.83 132.79 178.78
  L 138.47 178.43
  Q 138.88 178.41 138.92 177.99
  Q 139.27 173.48 138.61 169.02
  C 138.32 167.13 139.94 165.85 139.76 163.88
  C 139.23 157.87 134.96 158.50 129.79 158.49
  Q 114.27 158.48 98.69 158.51
  Q 98.10 158.51 98.06 159.10
  L 97.88 161.73
  Q 97.82 162.64 97.22 161.94
  C 92.36 156.22 83.57 156.69 77.90 160.21
  C 75.79 161.53 75.34 163.79 74.71 166.00"
/>
<path stroke="#516ec4" vector-effect="non-scaling-stroke" d="
  M 74.46 169.75
  L 74.71 166.00"
/>
<path stroke="#516ec4" vector-effect="non-scaling-stroke" d="
  M 73.79 166.00
  L 73.75 169.71"
/>
<path stroke="#8181c4" vector-effect="non-scaling-stroke" d="
  M 157.55 172.29
  C 154.45 169.27 156.34 164.46 159.88 162.57
  Q 160.39 162.30 160.84 162.65
  Q 165.65 166.31 171.78 165.09
  Q 172.22 165.00 172.17 164.55
  C 171.32 155.72 150.70 154.28 148.88 166.22
  C 147.61 174.57 152.16 178.45 159.67 178.79
  C 165.66 179.06 171.13 177.52 172.59 171.08
  A 0.89 0.88 -83.7 0 0 171.73 170.00
  L 165.69 170.00
  Q 165.13 170.00 164.92 170.52
  C 163.66 173.63 159.99 174.68 157.55 172.29"
/>
<path stroke="#8181c4" vector-effect="non-scaling-stroke" d="
  M 34.88 170.00
  A 0.34 0.34 0.0 0 0 35.22 169.64
  L 35.03 165.57
  A 0.34 0.34 0.0 0 0 34.69 165.25
  L 23.84 165.25
  A 0.34 0.34 0.0 0 1 23.50 164.91
  L 23.50 163.85
  A 0.34 0.34 0.0 0 1 23.84 163.51
  L 34.90 163.50
  A 0.34 0.34 0.0 0 0 35.24 163.16
  L 35.24 158.84
  A 0.34 0.34 0.0 0 0 34.90 158.50
  L 17.09 158.50
  A 0.34 0.34 0.0 0 0 16.75 158.84
  L 16.75 178.16
  A 0.34 0.34 0.0 0 0 17.09 178.50
  L 34.94 178.50
  A 0.34 0.34 0.0 0 0 35.28 178.16
  L 35.20 173.09
  A 0.34 0.34 0.0 0 0 34.86 172.75
  L 23.91 172.75
  A 0.34 0.34 0.0 0 1 23.57 172.39
  L 23.66 170.32
  A 0.34 0.34 0.0 0 1 24.00 170.00
  L 34.88 170.00"
/>
<path stroke="#8181c4" vector-effect="non-scaling-stroke" d="
  M 44.18 172.75
  A 0.43 0.43 0.0 0 1 43.75 172.32
  L 43.75 158.93
  A 0.43 0.43 0.0 0 0 43.32 158.50
  L 37.39 158.50
  A 0.43 0.43 0.0 0 0 36.96 158.93
  L 36.96 178.07
  A 0.43 0.43 0.0 0 0 37.39 178.50
  L 53.07 178.50
  A 0.43 0.43 0.0 0 0 53.50 178.07
  L 53.50 173.19
  A 0.43 0.43 0.0 0 0 53.07 172.76
  L 44.18 172.75"
/>
<path stroke="#8181c4" vector-effect="non-scaling-stroke" d="
  M 147.4665 158.9382
  A 0.43 0.43 0.0 0 0 147.0350 158.5097
  L 141.1150 158.5304
  A 0.43 0.43 0.0 0 0 140.6865 158.9619
  L 140.7535 178.1418
  A 0.43 0.43 0.0 0 0 141.1850 178.5703
  L 147.1050 178.5496
  A 0.43 0.43 0.0 0 0 147.5335 178.1181
  L 147.4665 158.9382"
/>
<path stroke="#8181c4" vector-effect="non-scaling-stroke" d="
  M 113.9434 139.1607
  A 5.33 5.05 82.2 0 0 118.2233 133.1946
  A 5.33 5.05 82.2 0 0 112.4966 128.5993
  A 5.33 5.05 82.2 0 0 108.2167 134.5654
  A 5.33 5.05 82.2 0 0 113.9434 139.1607"
/>
<path stroke="#8181c4" vector-effect="non-scaling-stroke" d="
  M 30.64 137.53
  C 35.40 131.21 29.33 129.19 24.21 129.53
  Q 23.75 129.56 23.75 130.02
  L 23.75 137.67
  Q 23.75 138.35 24.43 138.32
  L 29.69 138.04
  Q 30.28 138.01 30.64 137.53"
/>
<path stroke="#8181c4" vector-effect="non-scaling-stroke" d="
  M 58.94 132.44
  Q 58.35 133.33 58.22 134.46
  Q 58.13 135.20 58.88 135.20
  L 60.50 135.20
  Q 61.52 135.20 61.11 134.27
  L 60.12 131.97
  Q 59.81 131.25 59.23 131.77
  Q 58.84 132.11 58.94 132.44"
/>
<path stroke="#8181c4" vector-effect="non-scaling-stroke" d="
  M 164.6099 130.9124
  A 1.40 1.40 0.0 0 0 163.2001 129.5222
  L 158.0603 129.5580
  A 1.40 1.40 0.0 0 0 156.6701 130.9678
  L 156.7101 136.7076
  A 1.40 1.40 0.0 0 0 158.1199 138.0978
  L 163.2597 138.0620
  A 1.40 1.40 0.0 0 0 164.6499 136.6522
  L 164.6099 130.9124"
/>
<path stroke="#8181c4" vector-effect="non-scaling-stroke" d="
  M 131.9025 164.7795
  A 1.24 1.24 0.0 0 0 130.6690 163.5330
  L 125.7091 163.5070
  A 1.24 1.24 0.0 0 0 124.4626 164.7405
  L 124.4575 165.7205
  A 1.24 1.24 0.0 0 0 125.6910 166.9670
  L 130.6509 166.9930
  A 1.24 1.24 0.0 0 0 131.8974 165.7595
  L 131.9025 164.7795"
/>
</g>
<path fill="#ffffff" d="
  M 0.00 0.00
  L 200.00 0.00
  L 200.00 200.00
  L 0.00 200.00
  L 0.00 0.00
  Z
  M 16.79 20.25
  L 16.79 22.47
  Q 16.79 23.01 17.34 23.01
  Q 35.42 22.96 53.50 23.03
  Q 62.69 23.07 65.25 23.77
  C 94.83 31.90 90.13 84.37 57.55 83.92
  Q 47.24 83.78 36.80 83.76
  Q 36.25 83.76 36.25 83.20
  L 36.25 43.25
  A 0.50 0.50 0.0 0 0 35.75 42.75
  L 17.48 42.75
  Q 16.94 42.75 16.80 43.27
  Q 16.57 44.13 16.79 45.00
  L 16.77 105.21
  Q 16.77 105.73 17.29 105.73
  Q 39.30 105.81 61.30 105.72
  C 74.76 105.66 86.70 97.95 93.99 87.00
  Q 94.34 86.47 94.77 86.94
  L 96.00 88.29
  Q 104.35 100.41 118.46 104.50
  Q 122.28 105.70 127.01 105.72
  Q 149.44 105.82 171.99 105.72
  Q 172.50 105.71 172.50 105.21
  L 172.50 84.45
  Q 172.50 83.80 171.85 83.80
  L 168.25 83.79
  Q 153.68 83.57 143.00 83.92
  C 134.71 84.20 121.51 85.08 115.24 79.00
  Q 98.00 62.30 106.67 40.24
  C 111.06 29.08 120.89 23.22 132.68 23.11
  Q 148.38 22.96 164.00 22.96
  L 172.01 22.98
  Q 172.50 22.98 172.50 22.49
  L 172.50 2.27
  Q 172.50 1.76 172.00 1.76
  Q 150.84 1.72 129.68 1.76
  C 112.78 1.79 104.92 7.76 94.54 20.18
  Q 94.16 20.63 93.84 20.14
  C 86.67 9.17 74.85 1.25 61.45 1.62
  C 46.81 2.02 32.07 1.74 17.36 1.77
  Q 16.80 1.77 16.80 2.32
  L 16.79 20.25
  Z
  M 128.91 42.77
  C 116.60 42.80 115.70 64.66 130.27 64.73
  Q 151.07 64.82 171.99 64.72
  Q 172.50 64.71 172.50 64.21
  L 172.50 43.27
  Q 172.50 42.77 172.00 42.77
  Q 150.45 42.71 128.91 42.77
  Z
  M 125.4254 132.7114
  A 9.68 9.68 0.0 0 0 115.6112 123.1675
  L 110.8117 123.2345
  A 9.68 9.68 0.0 0 0 101.2678 133.0488
  L 101.2946 134.9686
  A 9.68 9.68 0.0 0 0 111.1088 144.5125
  L 115.9083 144.4455
  A 9.68 9.68 0.0 0 0 125.4522 134.6312
  L 125.4254 132.7114
  Z
  M 32.43 143.45
  C 42.01 143.27 40.96 124.31 33.01 124.26
  Q 25.16 124.21 17.25 124.27
  Q 16.75 124.27 16.75 124.77
  L 16.75 142.98
  Q 16.75 143.46 17.23 143.47
  Q 24.87 143.59 32.43 143.45
  Z
  M 93.21 134.29
  A 0.26 0.26 0.0 0 1 93.71 134.36
  L 93.95 142.90
  Q 93.97 143.46 94.53 143.47
  L 99.59 143.51
  Q 100.25 143.51 100.25 142.85
  L 100.25 125.00
  Q 100.25 124.25 99.50 124.25
  L 91.72 124.25
  Q 91.17 124.25 90.95 124.76
  L 86.65 134.72
  A 0.38 0.37 -44.8 0 1 85.96 134.72
  L 81.81 124.65
  Q 81.67 124.32 81.31 124.32
  L 72.64 124.22
  Q 72.00 124.21 72.00 124.86
  L 72.00 138.70
  A 0.51 0.50 32.0 0 1 71.04 138.92
  L 64.06 124.65
  Q 63.91 124.33 63.56 124.33
  L 56.44 124.21
  Q 55.77 124.20 55.47 124.80
  L 47.64 140.54
  Q 47.21 141.41 47.21 140.44
  L 47.27 124.76
  Q 47.27 124.25 46.76 124.25
  L 41.01 124.25
  Q 40.51 124.25 40.50 124.75
  L 40.31 142.85
  Q 40.30 143.38 40.84 143.39
  L 53.82 143.55
  Q 54.25 143.55 54.38 143.15
  L 55.22 140.62
  Q 55.41 140.05 56.01 140.04
  L 63.24 139.92
  Q 63.73 139.92 63.93 140.37
  L 65.06 142.96
  Q 65.26 143.43 65.77 143.43
  L 78.09 143.53
  Q 78.72 143.54 78.75 142.91
  L 79.02 134.73
  A 0.17 0.17 0.0 0 1 79.35 134.67
  L 82.70 142.92
  Q 82.97 143.58 83.68 143.55
  L 89.40 143.33
  Q 90.16 143.30 90.40 142.58
  L 93.21 134.29
  Z
  M 133.30 134.68
  A 0.32 0.32 0.0 0 1 133.89 134.52
  L 139.41 143.32
  A 0.32 0.32 0.0 0 0 139.68 143.47
  L 147.73 143.52
  A 0.32 0.32 0.0 0 0 148.05 143.20
  L 148.08 124.57
  A 0.32 0.32 0.0 0 0 147.76 124.25
  L 141.57 124.25
  A 0.32 0.32 0.0 0 0 141.25 124.57
  L 141.25 133.18
  A 0.32 0.32 0.0 0 1 140.66 133.36
  L 134.65 124.38
  A 0.32 0.32 0.0 0 0 134.38 124.24
  L 126.62 124.26
  A 0.32 0.32 0.0 0 0 126.30 124.58
  L 126.27 142.92
  A 0.32 0.32 0.0 0 0 126.57 143.24
  L 132.78 143.59
  A 0.32 0.32 0.0 0 0 133.12 143.28
  L 133.30 134.68
  Z
  M 168.67 125.59
  C 166.34 123.33 155.46 124.18 150.27 124.36
  Q 149.76 124.38 149.77 124.88
  L 150.03 142.75
  Q 150.04 143.41 150.70 143.42
  C 155.45 143.56 167.74 145.01 170.51 140.57
  Q 175.65 132.34 168.67 125.59
  Z
  M 74.71 166.00
  L 73.79 166.00
  C 73.37 164.99 65.66 165.22 63.72 165.26
  Q 63.20 165.28 62.72 165.09
  Q 61.22 164.50 62.84 163.83
  Q 63.20 163.68 63.58 163.65
  Q 67.89 163.34 72.62 163.56
  A 1.08 1.08 0.0 0 0 73.75 162.48
  L 73.75 159.13
  Q 73.75 158.50 73.12 158.50
  L 55.25 158.50
  Q 54.75 158.50 54.75 159.00
  L 54.75 178.00
  Q 54.75 178.50 55.25 178.50
  L 73.16 178.50
  Q 73.83 178.50 73.80 177.83
  L 73.60 173.29
  Q 73.58 172.75 73.04 172.75
  L 62.88 172.75
  Q 62.25 172.75 62.25 172.13
  L 62.25 170.58
  Q 62.25 169.92 62.90 169.91
  L 73.75 169.71
  L 74.46 169.75
  C 76.40 174.61 77.57 178.32 83.58 178.67
  C 91.06 179.12 97.33 178.57 98.84 170.44
  Q 98.92 170.00 98.48 170.00
  L 91.25 170.00
  Q 90.74 170.00 90.61 170.49
  C 89.13 176.00 81.58 173.61 82.32 167.78
  Q 82.92 163.06 86.99 162.47
  Q 87.63 162.38 88.10 162.82
  Q 91.89 166.39 97.20 165.03
  Q 97.60 164.93 97.87 164.61
  L 98.45 163.90
  Q 98.77 163.50 99.29 163.50
  L 104.25 163.50
  Q 104.75 163.50 104.75 164.00
  L 104.75 178.00
  Q 104.75 178.50 105.25 178.50
  L 110.75 178.50
  Q 111.25 178.50 111.25 178.00
  L 111.25 164.13
  Q 111.25 163.50 111.87 163.50
  L 117.33 163.50
  Q 118.10 163.50 118.11 164.27
  L 118.25 178.26
  Q 118.25 178.56 118.56 178.56
  L 124.01 178.47
  Q 124.49 178.47 124.50 177.98
  L 124.51 172.40
  Q 124.51 171.75 125.16 171.75
  L 130.12 171.75
  A 1.88 1.87 -0.0 0 1 132.00 173.62
  L 132.00 178.04
  Q 132.00 178.83 132.79 178.78
  L 138.47 178.43
  Q 138.88 178.41 138.92 177.99
  Q 139.27 173.48 138.61 169.02
  C 138.32 167.13 139.94 165.85 139.76 163.88
  C 139.23 157.87 134.96 158.50 129.79 158.49
  Q 114.27 158.48 98.69 158.51
  Q 98.10 158.51 98.06 159.10
  L 97.88 161.73
  Q 97.82 162.64 97.22 161.94
  C 92.36 156.22 83.57 156.69 77.90 160.21
  C 75.79 161.53 75.34 163.79 74.71 166.00
  Z
  M 157.55 172.29
  C 154.45 169.27 156.34 164.46 159.88 162.57
  Q 160.39 162.30 160.84 162.65
  Q 165.65 166.31 171.78 165.09
  Q 172.22 165.00 172.17 164.55
  C 171.32 155.72 150.70 154.28 148.88 166.22
  C 147.61 174.57 152.16 178.45 159.67 178.79
  C 165.66 179.06 171.13 177.52 172.59 171.08
  A 0.89 0.88 -83.7 0 0 171.73 170.00
  L 165.69 170.00
  Q 165.13 170.00 164.92 170.52
  C 163.66 173.63 159.99 174.68 157.55 172.29
  Z
  M 34.88 170.00
  A 0.34 0.34 0.0 0 0 35.22 169.64
  L 35.03 165.57
  A 0.34 0.34 0.0 0 0 34.69 165.25
  L 23.84 165.25
  A 0.34 0.34 0.0 0 1 23.50 164.91
  L 23.50 163.85
  A 0.34 0.34 0.0 0 1 23.84 163.51
  L 34.90 163.50
  A 0.34 0.34 0.0 0 0 35.24 163.16
  L 35.24 158.84
  A 0.34 0.34 0.0 0 0 34.90 158.50
  L 17.09 158.50
  A 0.34 0.34 0.0 0 0 16.75 158.84
  L 16.75 178.16
  A 0.34 0.34 0.0 0 0 17.09 178.50
  L 34.94 178.50
  A 0.34 0.34 0.0 0 0 35.28 178.16
  L 35.20 173.09
  A 0.34 0.34 0.0 0 0 34.86 172.75
  L 23.91 172.75
  A 0.34 0.34 0.0 0 1 23.57 172.39
  L 23.66 170.32
  A 0.34 0.34 0.0 0 1 24.00 170.00
  L 34.88 170.00
  Z
  M 44.18 172.75
  A 0.43 0.43 0.0 0 1 43.75 172.32
  L 43.75 158.93
  A 0.43 0.43 0.0 0 0 43.32 158.50
  L 37.39 158.50
  A 0.43 0.43 0.0 0 0 36.96 158.93
  L 36.96 178.07
  A 0.43 0.43 0.0 0 0 37.39 178.50
  L 53.07 178.50
  A 0.43 0.43 0.0 0 0 53.50 178.07
  L 53.50 173.19
  A 0.43 0.43 0.0 0 0 53.07 172.76
  L 44.18 172.75
  Z
  M 147.4665 158.9382
  A 0.43 0.43 0.0 0 0 147.0350 158.5097
  L 141.1150 158.5304
  A 0.43 0.43 0.0 0 0 140.6865 158.9619
  L 140.7535 178.1418
  A 0.43 0.43 0.0 0 0 141.1850 178.5703
  L 147.1050 178.5496
  A 0.43 0.43 0.0 0 0 147.5335 178.1181
  L 147.4665 158.9382
  Z"
/>
<path fill="#00009d" d="
  M 164.00 22.96
  C 165.87 18.89 151.47 20.43 149.02 20.74
  C 135.76 22.43 121.74 18.57 111.48 30.17
  Q 108.55 33.48 105.97 38.22
  C 100.53 48.19 101.61 61.41 106.85 71.17
  C 111.93 80.61 120.42 85.39 131.01 85.15
  Q 147.94 84.76 164.92 85.54
  Q 165.42 85.56 165.84 85.30
  L 168.25 83.79
  L 171.85 83.80
  Q 172.50 83.80 172.50 84.45
  L 172.50 105.21
  Q 172.50 105.71 171.99 105.72
  Q 149.44 105.82 127.01 105.72
  Q 122.28 105.70 118.46 104.50
  L 117.99 103.31
  Q 117.78 102.80 117.26 102.61
  Q 105.66 98.27 98.49 88.14
  Q 98.17 87.69 97.64 87.84
  L 96.00 88.29
  L 94.77 86.94
  Q 94.34 86.47 93.99 87.00
  C 86.70 97.95 74.76 105.66 61.30 105.72
  Q 39.30 105.81 17.29 105.73
  Q 16.77 105.73 16.77 105.21
  L 16.79 45.00
  Q 25.32 43.49 33.90 44.72
  Q 34.37 44.79 34.50 45.24
  C 35.65 48.95 34.50 54.19 34.53 57.50
  Q 34.63 70.54 34.70 83.65
  A 1.53 1.53 0.0 0 0 36.21 85.17
  Q 45.26 85.28 54.51 85.57
  C 68.13 86.00 77.81 82.61 83.36 69.08
  C 89.19 54.87 88.07 31.58 71.58 24.31
  Q 67.54 22.53 63.19 21.70
  C 59.32 20.97 51.41 20.71 47.73 22.54
  Q 47.29 22.75 46.81 22.75
  C 44.24 22.75 34.61 23.45 33.11 21.80
  Q 32.76 21.42 32.24 21.44
  C 27.70 21.67 24.86 20.29 21.45 20.44
  Q 20.96 20.46 20.52 20.27
  Q 18.69 19.48 16.79 20.25
  L 16.80 2.32
  Q 16.80 1.77 17.36 1.77
  C 32.07 1.74 46.81 2.02 61.45 1.62
  C 74.85 1.25 86.67 9.17 93.84 20.14
  Q 94.16 20.63 94.54 20.18
  C 104.92 7.76 112.78 1.79 129.68 1.76
  Q 150.84 1.72 172.00 1.76
  Q 172.50 1.76 172.50 2.27
  L 172.50 22.49
  Q 172.50 22.98 172.01 22.98
  L 164.00 22.96
  Z"
/>
<path fill="#030288" d="
  M 16.79 45.00
  Q 16.57 44.13 16.80 43.27
  Q 16.94 42.75 17.48 42.75
  L 35.75 42.75
  A 0.50 0.50 0.0 0 1 36.25 43.25
  L 36.25 83.20
  Q 36.25 83.76 36.80 83.76
  Q 47.24 83.78 57.55 83.92
  C 90.13 84.37 94.83 31.90 65.25 23.77
  Q 62.69 23.07 53.50 23.03
  Q 35.42 22.96 17.34 23.01
  Q 16.79 23.01 16.79 22.47
  L 16.79 20.25
  Q 18.69 19.48 20.52 20.27
  Q 20.96 20.46 21.45 20.44
  C 24.86 20.29 27.70 21.67 32.24 21.44
  Q 32.76 21.42 33.11 21.80
  C 34.61 23.45 44.24 22.75 46.81 22.75
  Q 47.29 22.75 47.73 22.54
  C 51.41 20.71 59.32 20.97 63.19 21.70
  Q 67.54 22.53 71.58 24.31
  C 88.07 31.58 89.19 54.87 83.36 69.08
  C 77.81 82.61 68.13 86.00 54.51 85.57
  Q 45.26 85.28 36.21 85.17
  A 1.53 1.53 0.0 0 1 34.70 83.65
  Q 34.63 70.54 34.53 57.50
  C 34.50 54.19 35.65 48.95 34.50 45.24
  Q 34.37 44.79 33.90 44.72
  Q 25.32 43.49 16.79 45.00
  Z"
/>
<path fill="#030288" d="
  M 164.00 22.96
  Q 148.38 22.96 132.68 23.11
  C 120.89 23.22 111.06 29.08 106.67 40.24
  Q 98.00 62.30 115.24 79.00
  C 121.51 85.08 134.71 84.20 143.00 83.92
  Q 153.68 83.57 168.25 83.79
  L 165.84 85.30
  Q 165.42 85.56 164.92 85.54
  Q 147.94 84.76 131.01 85.15
  C 120.42 85.39 111.93 80.61 106.85 71.17
  C 101.61 61.41 100.53 48.19 105.97 38.22
  Q 108.55 33.48 111.48 30.17
  C 121.74 18.57 135.76 22.43 149.02 20.74
  C 151.47 20.43 165.87 18.89 164.00 22.96
  Z"
/>
<path fill="#9fd9ff" d="
  M 130.27 64.73
  C 115.70 64.66 116.60 42.80 128.91 42.77
  Q 150.45 42.71 172.00 42.77
  Q 172.50 42.77 172.50 43.27
  L 172.50 64.21
  Q 172.50 64.71 171.99 64.72
  Q 151.07 64.82 130.27 64.73
  Z"
/>
<path fill="#030288" d="
  M 118.46 104.50
  Q 104.35 100.41 96.00 88.29
  L 97.64 87.84
  Q 98.17 87.69 98.49 88.14
  Q 105.66 98.27 117.26 102.61
  Q 117.78 102.80 117.99 103.31
  L 118.46 104.50
  Z"
/>
<path fill="#030288" d="
  M 125.4522 134.6312
  A 9.68 9.68 0.0 0 1 115.9083 144.4455
  L 111.1088 144.5125
  A 9.68 9.68 0.0 0 1 101.2946 134.9686
  L 101.2678 133.0488
  A 9.68 9.68 0.0 0 1 110.8117 123.2345
  L 115.6112 123.1675
  A 9.68 9.68 0.0 0 1 125.4254 132.7114
  L 125.4522 134.6312
  Z
  M 113.9434 139.1607
  A 5.33 5.05 82.2 0 0 118.2233 133.1946
  A 5.33 5.05 82.2 0 0 112.4966 128.5993
  A 5.33 5.05 82.2 0 0 108.2167 134.5654
  A 5.33 5.05 82.2 0 0 113.9434 139.1607
  Z"
/>
<path fill="#030288" d="
  M 33.01 124.26
  C 40.96 124.31 42.01 143.27 32.43 143.45
  Q 24.87 143.59 17.23 143.47
  Q 16.75 143.46 16.75 142.98
  L 16.75 124.77
  Q 16.75 124.27 17.25 124.27
  Q 25.16 124.21 33.01 124.26
  Z
  M 30.64 137.53
  C 35.40 131.21 29.33 129.19 24.21 129.53
  Q 23.75 129.56 23.75 130.02
  L 23.75 137.67
  Q 23.75 138.35 24.43 138.32
  L 29.69 138.04
  Q 30.28 138.01 30.64 137.53
  Z"
/>
<path fill="#030288" d="
  M 93.21 134.29
  L 90.40 142.58
  Q 90.16 143.30 89.40 143.33
  L 83.68 143.55
  Q 82.97 143.58 82.70 142.92
  L 79.35 134.67
  A 0.17 0.17 0.0 0 0 79.02 134.73
  L 78.75 142.91
  Q 78.72 143.54 78.09 143.53
  L 65.77 143.43
  Q 65.26 143.43 65.06 142.96
  L 63.93 140.37
  Q 63.73 139.92 63.24 139.92
  L 56.01 140.04
  Q 55.41 140.05 55.22 140.62
  L 54.38 143.15
  Q 54.25 143.55 53.82 143.55
  L 40.84 143.39
  Q 40.30 143.38 40.31 142.85
  L 40.50 124.75
  Q 40.51 124.25 41.01 124.25
  L 46.76 124.25
  Q 47.27 124.25 47.27 124.76
  L 47.21 140.44
  Q 47.21 141.41 47.64 140.54
  L 55.47 124.80
  Q 55.77 124.20 56.44 124.21
  L 63.56 124.33
  Q 63.91 124.33 64.06 124.65
  L 71.04 138.92
  A 0.51 0.50 32.0 0 0 72.00 138.70
  L 72.00 124.86
  Q 72.00 124.21 72.64 124.22
  L 81.31 124.32
  Q 81.67 124.32 81.81 124.65
  L 85.96 134.72
  A 0.38 0.37 -44.8 0 0 86.65 134.72
  L 90.95 124.76
  Q 91.17 124.25 91.72 124.25
  L 99.50 124.25
  Q 100.25 124.25 100.25 125.00
  L 100.25 142.85
  Q 100.25 143.51 99.59 143.51
  L 94.53 143.47
  Q 93.97 143.46 93.95 142.90
  L 93.71 134.36
  A 0.26 0.26 0.0 0 0 93.21 134.29
  Z
  M 58.94 132.44
  Q 58.35 133.33 58.22 134.46
  Q 58.13 135.20 58.88 135.20
  L 60.50 135.20
  Q 61.52 135.20 61.11 134.27
  L 60.12 131.97
  Q 59.81 131.25 59.23 131.77
  Q 58.84 132.11 58.94 132.44
  Z"
/>
<path fill="#030288" d="
  M 133.30 134.68
  L 133.12 143.28
  A 0.32 0.32 0.0 0 1 132.78 143.59
  L 126.57 143.24
  A 0.32 0.32 0.0 0 1 126.27 142.92
  L 126.30 124.58
  A 0.32 0.32 0.0 0 1 126.62 124.26
  L 134.38 124.24
  A 0.32 0.32 0.0 0 1 134.65 124.38
  L 140.66 133.36
  A 0.32 0.32 0.0 0 0 141.25 133.18
  L 141.25 124.57
  A 0.32 0.32 0.0 0 1 141.57 124.25
  L 147.76 124.25
  A 0.32 0.32 0.0 0 1 148.08 124.57
  L 148.05 143.20
  A 0.32 0.32 0.0 0 1 147.73 143.52
  L 139.68 143.47
  A 0.32 0.32 0.0 0 1 139.41 143.32
  L 133.89 134.52
  A 0.32 0.32 0.0 0 0 133.30 134.68
  Z"
/>
<path fill="#030288" d="
  M 168.67 125.59
  Q 175.65 132.34 170.51 140.57
  C 167.74 145.01 155.45 143.56 150.70 143.42
  Q 150.04 143.41 150.03 142.75
  L 149.77 124.88
  Q 149.76 124.38 150.27 124.36
  C 155.46 124.18 166.34 123.33 168.67 125.59
  Z
  M 164.6099 130.9124
  A 1.40 1.40 0.0 0 0 163.2001 129.5222
  L 158.0603 129.5580
  A 1.40 1.40 0.0 0 0 156.6701 130.9678
  L 156.7101 136.7076
  A 1.40 1.40 0.0 0 0 158.1199 138.0978
  L 163.2597 138.0620
  A 1.40 1.40 0.0 0 0 164.6499 136.6522
  L 164.6099 130.9124
  Z"
/>
<ellipse fill="#ffffff" cx="0.00" cy="0.00" transform="translate(113.22,133.88) rotate(82.2)" rx="5.33" ry="5.05"/>
<path fill="#ffffff" d="
  M 24.21 129.53
  C 29.33 129.19 35.40 131.21 30.64 137.53
  Q 30.28 138.01 29.69 138.04
  L 24.43 138.32
  Q 23.75 138.35 23.75 137.67
  L 23.75 130.02
  Q 23.75 129.56 24.21 129.53
  Z"
/>
<rect fill="#ffffff" x="-3.97" y="-4.27" transform="translate(160.66,133.81) rotate(-0.4)" width="7.94" height="8.54" rx="1.40"/>
<path fill="#ffffff" d="
  M 58.94 132.44
  Q 58.84 132.11 59.23 131.77
  Q 59.81 131.25 60.12 131.97
  L 61.11 134.27
  Q 61.52 135.20 60.50 135.20
  L 58.88 135.20
  Q 58.13 135.20 58.22 134.46
  Q 58.35 133.33 58.94 132.44
  Z"
/>
<path fill="#030288" d="
  M 74.46 169.75
  L 74.71 166.00
  C 75.34 163.79 75.79 161.53 77.90 160.21
  C 83.57 156.69 92.36 156.22 97.22 161.94
  Q 97.82 162.64 97.88 161.73
  L 98.06 159.10
  Q 98.10 158.51 98.69 158.51
  Q 114.27 158.48 129.79 158.49
  C 134.96 158.50 139.23 157.87 139.76 163.88
  C 139.94 165.85 138.32 167.13 138.61 169.02
  Q 139.27 173.48 138.92 177.99
  Q 138.88 178.41 138.47 178.43
  L 132.79 178.78
  Q 132.00 178.83 132.00 178.04
  L 132.00 173.62
  A 1.88 1.87 0.0 0 0 130.12 171.75
  L 125.16 171.75
  Q 124.51 171.75 124.51 172.40
  L 124.50 177.98
  Q 124.49 178.47 124.01 178.47
  L 118.56 178.56
  Q 118.25 178.56 118.25 178.26
  L 118.11 164.27
  Q 118.10 163.50 117.33 163.50
  L 111.87 163.50
  Q 111.25 163.50 111.25 164.13
  L 111.25 178.00
  Q 111.25 178.50 110.75 178.50
  L 105.25 178.50
  Q 104.75 178.50 104.75 178.00
  L 104.75 164.00
  Q 104.75 163.50 104.25 163.50
  L 99.29 163.50
  Q 98.77 163.50 98.45 163.90
  L 97.87 164.61
  Q 97.60 164.93 97.20 165.03
  Q 91.89 166.39 88.10 162.82
  Q 87.63 162.38 86.99 162.47
  Q 82.92 163.06 82.32 167.78
  C 81.58 173.61 89.13 176.00 90.61 170.49
  Q 90.74 170.00 91.25 170.00
  L 98.48 170.00
  Q 98.92 170.00 98.84 170.44
  C 97.33 178.57 91.06 179.12 83.58 178.67
  C 77.57 178.32 76.40 174.61 74.46 169.75
  Z
  M 131.9025 164.7795
  A 1.24 1.24 0.0 0 0 130.6690 163.5330
  L 125.7091 163.5070
  A 1.24 1.24 0.0 0 0 124.4626 164.7405
  L 124.4575 165.7205
  A 1.24 1.24 0.0 0 0 125.6910 166.9670
  L 130.6509 166.9930
  A 1.24 1.24 0.0 0 0 131.8974 165.7595
  L 131.9025 164.7795
  Z"
/>
<path fill="#030288" d="
  M 157.55 172.29
  C 159.99 174.68 163.66 173.63 164.92 170.52
  Q 165.13 170.00 165.69 170.00
  L 171.73 170.00
  A 0.89 0.88 -83.7 0 1 172.59 171.08
  C 171.13 177.52 165.66 179.06 159.67 178.79
  C 152.16 178.45 147.61 174.57 148.88 166.22
  C 150.70 154.28 171.32 155.72 172.17 164.55
  Q 172.22 165.00 171.78 165.09
  Q 165.65 166.31 160.84 162.65
  Q 160.39 162.30 159.88 162.57
  C 156.34 164.46 154.45 169.27 157.55 172.29
  Z"
/>
<path fill="#030288" d="
  M 34.88 170.00
  L 24.00 170.00
  A 0.34 0.34 0.0 0 0 23.66 170.32
  L 23.57 172.39
  A 0.34 0.34 0.0 0 0 23.91 172.75
  L 34.86 172.75
  A 0.34 0.34 0.0 0 1 35.20 173.09
  L 35.28 178.16
  A 0.34 0.34 0.0 0 1 34.94 178.50
  L 17.09 178.50
  A 0.34 0.34 0.0 0 1 16.75 178.16
  L 16.75 158.84
  A 0.34 0.34 0.0 0 1 17.09 158.50
  L 34.90 158.50
  A 0.34 0.34 0.0 0 1 35.24 158.84
  L 35.24 163.16
  A 0.34 0.34 0.0 0 1 34.90 163.50
  L 23.84 163.51
  A 0.34 0.34 0.0 0 0 23.50 163.85
  L 23.50 164.91
  A 0.34 0.34 0.0 0 0 23.84 165.25
  L 34.69 165.25
  A 0.34 0.34 0.0 0 1 35.03 165.57
  L 35.22 169.64
  A 0.34 0.34 0.0 0 1 34.88 170.00
  Z"
/>
<path fill="#030288" d="
  M 44.18 172.75
  L 53.07 172.76
  A 0.43 0.43 0.0 0 1 53.50 173.19
  L 53.50 178.07
  A 0.43 0.43 0.0 0 1 53.07 178.50
  L 37.39 178.50
  A 0.43 0.43 0.0 0 1 36.96 178.07
  L 36.96 158.93
  A 0.43 0.43 0.0 0 1 37.39 158.50
  L 43.32 158.50
  A 0.43 0.43 0.0 0 1 43.75 158.93
  L 43.75 172.32
  A 0.43 0.43 0.0 0 0 44.18 172.75
  Z"
/>
<path fill="#030288" d="
  M 73.79 166.00
  L 73.75 169.71
  L 62.90 169.91
  Q 62.25 169.92 62.25 170.58
  L 62.25 172.13
  Q 62.25 172.75 62.88 172.75
  L 73.04 172.75
  Q 73.58 172.75 73.60 173.29
  L 73.80 177.83
  Q 73.83 178.50 73.16 178.50
  L 55.25 178.50
  Q 54.75 178.50 54.75 178.00
  L 54.75 159.00
  Q 54.75 158.50 55.25 158.50
  L 73.12 158.50
  Q 73.75 158.50 73.75 159.13
  L 73.75 162.48
  A 1.08 1.08 0.0 0 1 72.62 163.56
  Q 67.89 163.34 63.58 163.65
  Q 63.20 163.68 62.84 163.83
  Q 61.22 164.50 62.72 165.09
  Q 63.20 165.28 63.72 165.26
  C 65.66 165.22 73.37 164.99 73.79 166.00
  Z"
/>
<rect fill="#030288" x="-3.39" y="-10.02" transform="translate(144.11,168.54) rotate(-0.2)" width="6.78" height="20.04" rx="0.43"/>
<rect fill="#ffffff" x="-3.72" y="-1.73" transform="translate(128.18,165.25) rotate(0.3)" width="7.44" height="3.46" rx="1.24"/>
<path fill="#9fd9ff" d="
  M 73.79 166.00
  L 74.71 166.00
  L 74.46 169.75
  L 73.75 169.71
  L 73.79 166.00
  Z"
/>
</svg>
