<svg xmlns="http://www.w3.org/2000/svg" version="1.1" xmlns:xlink="http://www.w3.org/1999/xlink" xmlns:svgjs="http://svgjs.dev/svgjs" width="2000" height="545" viewBox="0 0 2000 545"><g transform="matrix(1,0,0,1,-1.2112696095522324,-0.24584188195848355)"><svg viewBox="0 0 396 108" data-background-color="#ffffff" preserveAspectRatio="xMidYMid meet" height="545" width="2000" xmlns="http://www.w3.org/2000/svg" xmlns:xlink="http://www.w3.org/1999/xlink"><g id="tight-bounds" transform="matrix(1,0,0,1,0.24008861730862918,0.048813251969249905)"><svg viewBox="0 0 395.52 107.90235407640921" height="107.90235407640921" width="395.52"><g><svg viewBox="0 0 395.52 107.90235407640921" height="107.90235407640921" width="395.52"><g><svg viewBox="0 0 395.52 107.90235407640921" height="107.90235407640921" width="395.52"><g id="textblocktransform"><svg viewBox="0 0 395.52 107.90235407640921" height="107.90235407640921" width="395.52" id="textblock"><g><svg viewBox="0 0 395.52 107.90235407640921" height="107.90235407640921" width="395.52"><path d="M394.594 23.143C392.735 11.943 387.435 8.829 387.435 8.829 371.165-2.707 350.86-0.221 332.619 1.437 300.414 1.504 268.339 3.968 236.208 5.29 168.767 5.491 100.749 2.176 33.643 10.352 27.339 12.861-6.54 10.845 1.121 24.577 3.129 30.289 10.456 36.628 10.232 41.87 11.236 42.788 12.631 40.683 13.226 42.004 15.309 45.566 18.711 43.886 21.501 45.991 17.614 51.614 20.403 56.296 23.062 61.201 18.377 62.478 12.371 61.873 9.675 66.107 9.396 69.176 7.89 68.594 6.235 68.459 5.026 68.37 2.59 68.706 2.999 69.669 4.394 72.962-1.594 74.866 2.162 78.091-0.422 81.586 3.948 84.61 3.353 88.396 3.278 89.157 3.687 89.807 4.338 89.986 7.22 90.949 3.018 92.831 3.464 94.869 33.029 108.802 65.104 99.17 95.394 105.577 103.259 101.097 97.346 107.167 100.489 106.226 102.943 105.129 104.728 109.676 107.499 107.1 107.927 106.361 107.276 104.613 108.8 104.949 109.6 105.129 110.307 105.084 110.418 104.053 110.586 102.508 109.117 103.471 108.726 102.665 112.947 98.588 111.906 108.287 115.866 107.884 115.68 106.697 114.528 104.994 116.889 105.218 119.232 103.516 119.306 102.105 121.389 105.935 121.463 106.764 121.835 107.346 122.43 107.75 128.938 103.583 135.409 109.228 142.233 107.346 146.417 105.285 150.433 108.466 154.672 107.682 156.16 107.055 157.666 105.935 159.098 107.817 176.632 108.22 195.319 106.54 211.943 107.884 256.364 105.375 303.835 108.914 350.674 105.599 361.719 104.322 373.192 102.508 383.958 101.052 383.958 101.052 392.679 97.064 392.679 79.144S394.538 63.464 394.817 49.195C395.096 34.926 396.398 34.343 394.538 23.143Z" opacity="1" fill="#ee3e38" data-fill-palette-color="tertiary"></path><g transform="matrix(1,0,0,1,55.76832,26.230666666666668)"><svg width="283.98335999999995" viewBox="3.700000047683716 -39.95000076293945 222.04000854492188 43.35000228881836" height="55.44102074307587" data-palette-color="#ffffff"><path d="M34.65-39.95L34.65-39.95Q36.25-39.95 38.15-39.2L38.15-39.2Q39.9-38.5 39.9-36.55L39.9-36.55 39.9-2.1Q39.9 0.3 36.95 0.3L36.95 0.3Q34 0.3 34-2.1L34-2.1 34-27.8 32.55-27.95 30.55-21.45 24.55-1.45Q24 0.3 21.85 0.25L21.85 0.25Q20.9 0.2 20.2-0.25 19.5-0.7 19.25-1.55L19.25-1.55 15.65-13.2Q14.55-16.65 13.45-20.23 12.35-23.8 11.05-28.15L11.05-28.15 9.6-27.95 9.6-2.1Q9.6 0.3 6.65 0.3L6.65 0.3Q3.7 0.3 3.7-2.1L3.7-2.1 3.7-36.55Q3.7-38.45 5.45-39.2L5.45-39.2Q7.3-39.95 9-39.9L9-39.9Q9.75-39.9 10.55-39.7 11.35-39.5 12.05-39.13 12.75-38.75 13.3-38.18 13.85-37.6 14.15-36.85L14.15-36.85 22-10.1Q22.85-13.05 23.8-16.5 24.75-19.95 25.75-23.5 26.75-27.05 27.73-30.53 28.7-34 29.55-37L29.55-37Q29.85-37.7 30.4-38.25 30.95-38.8 31.65-39.18 32.35-39.55 33.13-39.75 33.9-39.95 34.65-39.95ZM71.1-1.2L60.1-34.8 49.15-1.2 49.15-1.25Q48.85-0.5 48.32-0.03 47.8 0.45 47.05 0.45L47.05 0.45Q46.65 0.45 46.27 0.38 45.9 0.3 45.5 0.2L45.5 0.2 45.55 0.2Q42.7-0.7 43.45-3L43.45-3 54.85-37.65Q55.1-38.45 55.72-39 56.35-39.55 57.2-39.65L57.2-39.65Q58.05-39.8 58.85-39.88 59.65-39.95 60.1-39.95L60.1-39.95Q60.55-39.95 61.35-39.88 62.15-39.8 63-39.7L63-39.7Q63.7-39.6 64.37-38.95 65.05-38.3 65.4-37.65L65.4-37.65Q68.2-29.05 71.07-20.33 73.95-11.6 76.75-3L76.75-3Q77.45-0.7 74.65 0.2L74.65 0.2Q74.25 0.3 73.92 0.38 73.6 0.45 73.2 0.45L73.2 0.45Q72.5 0.45 71.92-0.03 71.35-0.5 71.1-1.25L71.1-1.25 71.1-1.2ZM63.85-12L63.85-12Q63.85-10.4 62.72-9.28 61.6-8.15 60-8.15L60-8.15Q58.4-8.15 57.3-9.28 56.2-10.4 56.2-12L56.2-12Q56.2-13.6 57.3-14.73 58.4-15.85 60-15.85L60-15.85Q61.6-15.85 62.72-14.73 63.85-13.6 63.85-12ZM104.84-0.6L95.4-16.45 91.55-16.45Q90.7-16.45 90.22-17.13 89.75-17.8 89.75-18.95L89.75-18.95Q89.75-21.5 91.84-21.5L91.84-21.5 97.7-21.5Q99.55-21.5 100.3-22.55 101.05-23.6 101.05-24.85L101.05-24.85 101.05-31.3Q101.05-32.55 100.3-33.6 99.55-34.65 97.7-34.65L97.7-34.65 87.15-34.65 87.15-2.05Q87.15 0.35 84.2 0.35L84.2 0.35Q81.25 0.35 81.25-2.05L81.25-2.05 81.25-36.7Q81.25-38.5 82.17-39.1 83.09-39.7 84.4-39.7L84.4-39.7 98.95-39.7Q100.25-39.7 101.65-39.15 103.05-38.6 104.34-37.75L104.34-37.75 104.3-37.75Q105.59-36.8 106.3-35.27 107-33.75 107-31.75L107-31.75 107-24.45Q107-20.4 104.3-18.4L104.3-18.4Q103.75-18 103.12-17.65 102.5-17.3 101.84-16.95L101.84-16.95 109.84-3.75Q110-3.5 110.15-3.1 110.3-2.7 110.3-2.45L110.3-2.45Q110.3-1.25 108.59-0.15L108.59-0.15 108.59-0.2Q107.45 0.5 106.65 0.5L106.65 0.5Q105.5 0.5 104.8-0.65L104.8-0.65 104.84-0.6ZM124.19-5L132.44-5Q133.79-5 134.94-5.73 136.09-6.45 136.09-8.15L136.09-8.15 135.99-31.3Q135.99-32.55 135.24-33.6 134.49-34.65 132.59-34.65L132.59-34.65 124.19-34.65Q122.34-34.65 121.57-33.6 120.79-32.55 120.79-31.3L120.79-31.3 120.79-8.4Q120.79-7.1 121.57-6.05 122.34-5 124.19-5L124.19-5ZM132.84-11.6L132.84-11.6Q132.84-9.85 131.64-8.65 130.44-7.45 128.69-7.45L128.69-7.45Q126.99-7.45 125.79-8.65 124.59-9.85 124.59-11.6L124.59-11.6Q124.59-13.3 125.79-14.5 126.99-15.7 128.69-15.7L128.69-15.7Q130.44-15.7 131.64-14.5 132.84-13.3 132.84-11.6ZM140.69-3.65L143.89-0.4Q144.39 0.1 144.39 0.85L144.39 0.85Q144.39 1.25 144.19 1.65 143.99 2.05 143.54 2.45L143.54 2.45Q142.64 3.4 141.94 3.4L141.94 3.4Q141.39 3.4 140.74 2.75L140.74 2.75 137.29-0.7Q135.34 0.05 133.89 0.05L133.89 0.05 122.99 0.05Q121.69 0.05 120.32-0.48 118.94-1 117.64-1.95L117.64-1.95Q114.94-3.95 114.94-8L114.94-8 114.94-31.75Q114.94-33.75 115.64-35.27 116.34-36.8 117.64-37.75L117.64-37.75 117.59-37.75Q118.84-38.6 120.27-39.15 121.69-39.7 122.99-39.7L122.99-39.7 133.89-39.7Q135.14-39.7 136.54-39.15 137.94-38.6 139.24-37.75L139.24-37.75 139.19-37.75Q140.49-36.8 141.19-35.27 141.89-33.75 141.89-31.75L141.89-31.75 141.89-8Q141.89-6.8 141.57-5.7 141.24-4.6 140.69-3.65L140.69-3.65ZM176.94-37.55L176.94-8Q176.94-3.95 174.24-1.95L174.24-1.95Q172.94-1 171.56-0.48 170.19 0.05 168.89 0.05L168.89 0.05 157.99 0.05Q156.69 0.05 155.31-0.48 153.94-1 152.64-1.95L152.64-1.95Q151.34-2.95 150.64-4.42 149.94-5.9 149.94-8L149.94-8 149.94-37.55Q149.94-39.95 152.89-39.95L152.89-39.95Q155.89-39.95 155.89-37.55L155.89-37.55 155.89-8.4Q155.89-7.1 156.64-6.05 157.39-5 159.24-5L159.24-5 167.64-5Q169.49-5 170.24-6.05 170.99-7.1 170.99-8.4L170.99-8.4 170.99-37.55Q170.99-39.95 173.94-39.95L173.94-39.95Q176.94-39.95 176.94-37.55L176.94-37.55ZM190.74-37.55L190.74-2.1Q190.74 0.3 187.74 0.3L187.74 0.3Q184.79 0.3 184.79-2.1L184.79-2.1 184.79-37.55Q184.79-39.95 187.74-39.95L187.74-39.95Q190.74-39.95 190.74-37.55L190.74-37.55ZM208.04-22.85L217.69-22.85Q218.99-22.85 220.39-22.3 221.79-21.75 223.09-20.85L223.09-20.85 223.04-20.85Q224.34-19.95 225.04-18.4 225.74-16.85 225.74-14.85L225.74-14.85 225.74-8Q225.74-3.95 223.04-1.95L223.04-1.95Q221.74-1 220.36-0.48 218.99 0.05 217.69 0.05L217.69 0.05 206.79 0.05Q205.49 0.05 204.11-0.48 202.74-1 201.44-1.95L201.44-1.95Q198.74-3.95 198.74-8L198.74-8 198.74-11.3Q198.74-13.65 201.69-13.65L201.69-13.65Q204.69-13.65 204.69-11.3L204.69-11.3 204.69-8.4Q204.69-7.1 205.44-6.05 206.19-5 208.04-5L208.04-5 216.44-5Q218.29-5 219.04-6.05 219.79-7.1 219.79-8.4L219.79-8.4 219.79-14.45Q219.79-15.7 219.04-16.78 218.29-17.85 216.44-17.85L216.44-17.85 206.79-17.85Q204.19-17.85 201.44-19.75L201.44-19.75Q198.74-21.85 198.74-25.8L198.74-25.8 198.74-31.75Q198.74-33.75 199.44-35.27 200.14-36.8 201.44-37.75L201.44-37.75 201.39-37.75Q202.69-38.6 204.09-39.15 205.49-39.7 206.79-39.7L206.79-39.7 217.69-39.7Q218.99-39.7 220.39-39.15 221.79-38.6 223.09-37.75L223.09-37.75 223.04-37.75Q224.34-36.8 225.04-35.27 225.74-33.75 225.74-31.75L225.74-31.75 225.74-28.8Q225.74-26.45 222.74-26.45L222.74-26.45Q219.79-26.45 219.79-28.8L219.79-28.8 219.79-31.3Q219.79-32.55 219.04-33.6 218.29-34.65 216.44-34.65L216.44-34.65 208.04-34.65Q206.19-34.65 205.44-33.6 204.69-32.55 204.69-31.3L204.69-31.3 204.69-26.2Q204.69-24.9 205.44-23.88 206.19-22.85 208.04-22.85L208.04-22.85Z" opacity="1" transform="matrix(1,0,0,1,0,0)" fill="#ffffff" class="wordmark-text-0" data-fill-palette-color="quaternary" id="text-0"></path></svg></g></svg></g></svg></g></svg></g><g></g></svg></g><defs></defs></svg><rect width="395.52" height="107.90235407640921" fill="none" stroke="none" visibility="hidden"></rect></g></svg></g></svg>